<svg xmlns="http://www.w3.org/2000/svg" viewBox="0 0 24 24" fill="none">
  <path d="M5 2h14M5 22h14M7 2v4.2c0 .53.21 1.04.59 1.41L12 12l4.41-4.39c.38-.37.59-.88.59-1.41V2M17 22v-4.2c0-.53-.21-1.04-.59-1.41L12 12l-4.41 4.39c-.38.37-.59.88-.59 1.41V22" stroke="#e5e7eb" stroke-width="2" stroke-linecap="round" stroke-linejoin="round"/>
  <path d="M8.5 3.5h7v2.3c0 .22-.09.44-.25.6L12 9.65 8.75 6.4a.86.86 0 0 1-.25-.6z" fill="#e5e7eb"/>
  <path d="M8.5 20.5h7v-2.3c0-.22-.09-.44-.25-.6L12 14.35 8.75 17.6a.86.86 0 0 0-.25.6z" fill="#e5e7eb"/>
</svg>
